<mxfile host="app.diagrams.net" modified="2023-09-18T12:32:11.713Z" agent="Mozilla/5.0 (Windows NT 10.0; Win64; x64) AppleWebKit/537.36 (KHTML, like Gecko) Chrome/117.0.0.0 Safari/537.36" etag="2VyrARtERd5EJFu1sWWD" version="21.7.2" type="device">
  <diagram id="R2lEEEUBdFMjLlhIrx00" name="Page-1">
    <mxGraphModel dx="2140" dy="542" grid="1" gridSize="10" guides="1" tooltips="1" connect="1" arrows="1" fold="1" page="1" pageScale="1" pageWidth="850" pageHeight="1100" math="0" shadow="0" extFonts="Permanent Marker^https://fonts.googleapis.com/css?family=Permanent+Marker">
      <root>
        <mxCell id="0" />
        <mxCell id="1" parent="0" />
        <mxCell id="OkN6ahQAEQWgbEUI2Z8t-5" value="hat" style="shape=rhombus;perimeter=rhombusPerimeter;whiteSpace=wrap;html=1;align=center;" vertex="1" parent="1">
          <mxGeometry x="320" y="180" width="120" height="60" as="geometry" />
        </mxCell>
        <mxCell id="OkN6ahQAEQWgbEUI2Z8t-6" value="unterrichtet" style="shape=rhombus;perimeter=rhombusPerimeter;whiteSpace=wrap;html=1;align=center;" vertex="1" parent="1">
          <mxGeometry x="580" y="280" width="120" height="60" as="geometry" />
        </mxCell>
        <mxCell id="OkN6ahQAEQWgbEUI2Z8t-7" value="" style="endArrow=none;html=1;rounded=0;" edge="1" parent="1" source="OkN6ahQAEQWgbEUI2Z8t-28" target="OkN6ahQAEQWgbEUI2Z8t-6">
          <mxGeometry relative="1" as="geometry">
            <mxPoint x="595" y="220" as="sourcePoint" />
            <mxPoint x="640" y="290" as="targetPoint" />
          </mxGeometry>
        </mxCell>
        <mxCell id="OkN6ahQAEQWgbEUI2Z8t-14" value="M" style="edgeLabel;html=1;align=center;verticalAlign=middle;resizable=0;points=[];" vertex="1" connectable="0" parent="OkN6ahQAEQWgbEUI2Z8t-7">
          <mxGeometry x="-0.46" y="-1" relative="1" as="geometry">
            <mxPoint x="-2" y="-10" as="offset" />
          </mxGeometry>
        </mxCell>
        <mxCell id="OkN6ahQAEQWgbEUI2Z8t-9" value="" style="endArrow=none;html=1;rounded=0;" edge="1" parent="1" source="OkN6ahQAEQWgbEUI2Z8t-6" target="OkN6ahQAEQWgbEUI2Z8t-29">
          <mxGeometry relative="1" as="geometry">
            <mxPoint x="589.5" y="310" as="sourcePoint" />
            <mxPoint x="605" y="350" as="targetPoint" />
          </mxGeometry>
        </mxCell>
        <mxCell id="OkN6ahQAEQWgbEUI2Z8t-15" value="N" style="edgeLabel;html=1;align=center;verticalAlign=middle;resizable=0;points=[];" vertex="1" connectable="0" parent="OkN6ahQAEQWgbEUI2Z8t-9">
          <mxGeometry x="0.04" y="-1" relative="1" as="geometry">
            <mxPoint x="-11" y="13" as="offset" />
          </mxGeometry>
        </mxCell>
        <mxCell id="OkN6ahQAEQWgbEUI2Z8t-10" value="" style="endArrow=none;html=1;rounded=0;" edge="1" parent="1" source="OkN6ahQAEQWgbEUI2Z8t-28" target="OkN6ahQAEQWgbEUI2Z8t-5">
          <mxGeometry relative="1" as="geometry">
            <mxPoint x="550" y="198" as="sourcePoint" />
            <mxPoint x="650" y="280" as="targetPoint" />
          </mxGeometry>
        </mxCell>
        <mxCell id="OkN6ahQAEQWgbEUI2Z8t-13" value="1" style="edgeLabel;html=1;align=center;verticalAlign=middle;resizable=0;points=[];" vertex="1" connectable="0" parent="OkN6ahQAEQWgbEUI2Z8t-10">
          <mxGeometry x="-0.22" y="2" relative="1" as="geometry">
            <mxPoint x="16" y="-2" as="offset" />
          </mxGeometry>
        </mxCell>
        <mxCell id="OkN6ahQAEQWgbEUI2Z8t-11" value="" style="endArrow=none;html=1;rounded=0;" edge="1" parent="1" source="OkN6ahQAEQWgbEUI2Z8t-5" target="OkN6ahQAEQWgbEUI2Z8t-27">
          <mxGeometry relative="1" as="geometry">
            <mxPoint x="430" y="190" as="sourcePoint" />
            <mxPoint x="310" y="198" as="targetPoint" />
          </mxGeometry>
        </mxCell>
        <mxCell id="OkN6ahQAEQWgbEUI2Z8t-12" value="N" style="edgeLabel;html=1;align=center;verticalAlign=middle;resizable=0;points=[];" vertex="1" connectable="0" parent="OkN6ahQAEQWgbEUI2Z8t-11">
          <mxGeometry x="0.5467" relative="1" as="geometry">
            <mxPoint as="offset" />
          </mxGeometry>
        </mxCell>
        <mxCell id="OkN6ahQAEQWgbEUI2Z8t-16" value="Ist klassenlehrer von" style="shape=rhombus;perimeter=rhombusPerimeter;whiteSpace=wrap;html=1;align=center;" vertex="1" parent="1">
          <mxGeometry x="460" y="280" width="120" height="60" as="geometry" />
        </mxCell>
        <mxCell id="OkN6ahQAEQWgbEUI2Z8t-17" value="" style="endArrow=none;html=1;rounded=0;" edge="1" parent="1" source="OkN6ahQAEQWgbEUI2Z8t-28" target="OkN6ahQAEQWgbEUI2Z8t-16">
          <mxGeometry relative="1" as="geometry">
            <mxPoint x="559" y="220" as="sourcePoint" />
            <mxPoint x="640" y="290" as="targetPoint" />
          </mxGeometry>
        </mxCell>
        <mxCell id="OkN6ahQAEQWgbEUI2Z8t-20" value="N" style="edgeLabel;html=1;align=center;verticalAlign=middle;resizable=0;points=[];" vertex="1" connectable="0" parent="OkN6ahQAEQWgbEUI2Z8t-17">
          <mxGeometry x="-0.6291" y="-2" relative="1" as="geometry">
            <mxPoint y="-3" as="offset" />
          </mxGeometry>
        </mxCell>
        <mxCell id="OkN6ahQAEQWgbEUI2Z8t-18" value="" style="endArrow=none;html=1;rounded=0;" edge="1" parent="1" source="OkN6ahQAEQWgbEUI2Z8t-16" target="OkN6ahQAEQWgbEUI2Z8t-29">
          <mxGeometry relative="1" as="geometry">
            <mxPoint x="410" y="295" as="sourcePoint" />
            <mxPoint x="569" y="350" as="targetPoint" />
          </mxGeometry>
        </mxCell>
        <mxCell id="OkN6ahQAEQWgbEUI2Z8t-19" value="1" style="edgeLabel;html=1;align=center;verticalAlign=middle;resizable=0;points=[];" vertex="1" connectable="0" parent="OkN6ahQAEQWgbEUI2Z8t-18">
          <mxGeometry x="0.3745" y="2" relative="1" as="geometry">
            <mxPoint as="offset" />
          </mxGeometry>
        </mxCell>
        <mxCell id="OkN6ahQAEQWgbEUI2Z8t-21" value="ist klassensprecher" style="shape=rhombus;perimeter=rhombusPerimeter;whiteSpace=wrap;html=1;align=center;" vertex="1" parent="1">
          <mxGeometry x="320" y="120" width="120" height="60" as="geometry" />
        </mxCell>
        <mxCell id="OkN6ahQAEQWgbEUI2Z8t-22" value="" style="endArrow=none;html=1;rounded=0;" edge="1" parent="1" source="OkN6ahQAEQWgbEUI2Z8t-27" target="OkN6ahQAEQWgbEUI2Z8t-21">
          <mxGeometry relative="1" as="geometry">
            <mxPoint x="310" y="174" as="sourcePoint" />
            <mxPoint x="690" y="290" as="targetPoint" />
          </mxGeometry>
        </mxCell>
        <mxCell id="OkN6ahQAEQWgbEUI2Z8t-24" value="1" style="edgeLabel;html=1;align=center;verticalAlign=middle;resizable=0;points=[];" vertex="1" connectable="0" parent="OkN6ahQAEQWgbEUI2Z8t-22">
          <mxGeometry x="-0.6449" y="-4" relative="1" as="geometry">
            <mxPoint x="-1" as="offset" />
          </mxGeometry>
        </mxCell>
        <mxCell id="OkN6ahQAEQWgbEUI2Z8t-25" value="" style="endArrow=none;html=1;rounded=0;" edge="1" parent="1" source="OkN6ahQAEQWgbEUI2Z8t-28" target="OkN6ahQAEQWgbEUI2Z8t-21">
          <mxGeometry relative="1" as="geometry">
            <mxPoint x="550" y="174" as="sourcePoint" />
            <mxPoint x="407" y="133" as="targetPoint" />
          </mxGeometry>
        </mxCell>
        <mxCell id="OkN6ahQAEQWgbEUI2Z8t-26" value="1" style="edgeLabel;html=1;align=center;verticalAlign=middle;resizable=0;points=[];" vertex="1" connectable="0" parent="OkN6ahQAEQWgbEUI2Z8t-25">
          <mxGeometry x="-0.6449" y="-4" relative="1" as="geometry">
            <mxPoint x="-9" as="offset" />
          </mxGeometry>
        </mxCell>
        <mxCell id="OkN6ahQAEQWgbEUI2Z8t-27" value="SchÃ¼ler" style="rounded=0;whiteSpace=wrap;html=1;" vertex="1" parent="1">
          <mxGeometry x="110" y="150" width="120" height="60" as="geometry" />
        </mxCell>
        <mxCell id="OkN6ahQAEQWgbEUI2Z8t-28" value="Klasse" style="rounded=0;whiteSpace=wrap;html=1;" vertex="1" parent="1">
          <mxGeometry x="520" y="150" width="120" height="60" as="geometry" />
        </mxCell>
        <mxCell id="OkN6ahQAEQWgbEUI2Z8t-29" value="Lehrer" style="rounded=0;whiteSpace=wrap;html=1;" vertex="1" parent="1">
          <mxGeometry x="520" y="405.37" width="120" height="60" as="geometry" />
        </mxCell>
        <mxCell id="OkN6ahQAEQWgbEUI2Z8t-30" value="Nachname" style="ellipse;whiteSpace=wrap;html=1;" vertex="1" parent="1">
          <mxGeometry x="110" y="230" width="120" height="80" as="geometry" />
        </mxCell>
        <mxCell id="OkN6ahQAEQWgbEUI2Z8t-31" value="Geburtsdatum" style="ellipse;whiteSpace=wrap;html=1;" vertex="1" parent="1">
          <mxGeometry x="680" y="505.37" width="120" height="80" as="geometry" />
        </mxCell>
        <mxCell id="OkN6ahQAEQWgbEUI2Z8t-32" value="Vorname" style="ellipse;whiteSpace=wrap;html=1;" vertex="1" parent="1">
          <mxGeometry x="-30" y="140" width="120" height="80" as="geometry" />
        </mxCell>
        <mxCell id="OkN6ahQAEQWgbEUI2Z8t-33" value="Vorname" style="ellipse;whiteSpace=wrap;html=1;" vertex="1" parent="1">
          <mxGeometry x="680" y="395.37" width="120" height="80" as="geometry" />
        </mxCell>
        <mxCell id="OkN6ahQAEQWgbEUI2Z8t-34" value="Fach" style="ellipse;whiteSpace=wrap;html=1;" vertex="1" parent="1">
          <mxGeometry x="730" y="270" width="120" height="80" as="geometry" />
        </mxCell>
        <mxCell id="OkN6ahQAEQWgbEUI2Z8t-35" value="Klassenname" style="ellipse;whiteSpace=wrap;html=1;" vertex="1" parent="1">
          <mxGeometry x="670" y="140" width="120" height="80" as="geometry" />
        </mxCell>
        <mxCell id="OkN6ahQAEQWgbEUI2Z8t-36" value="Nachname" style="ellipse;whiteSpace=wrap;html=1;" vertex="1" parent="1">
          <mxGeometry x="520" y="505.37" width="120" height="80" as="geometry" />
        </mxCell>
        <mxCell id="OkN6ahQAEQWgbEUI2Z8t-37" value="Geburtsdatum" style="ellipse;whiteSpace=wrap;html=1;" vertex="1" parent="1">
          <mxGeometry x="-30" y="230" width="120" height="80" as="geometry" />
        </mxCell>
        <mxCell id="OkN6ahQAEQWgbEUI2Z8t-38" value="" style="endArrow=none;html=1;rounded=0;" edge="1" parent="1" source="OkN6ahQAEQWgbEUI2Z8t-36" target="OkN6ahQAEQWgbEUI2Z8t-29">
          <mxGeometry relative="1" as="geometry">
            <mxPoint x="480" y="365.37" as="sourcePoint" />
            <mxPoint x="640" y="365.37" as="targetPoint" />
          </mxGeometry>
        </mxCell>
        <mxCell id="OkN6ahQAEQWgbEUI2Z8t-39" value="" style="endArrow=none;html=1;rounded=0;" edge="1" parent="1" source="OkN6ahQAEQWgbEUI2Z8t-31" target="OkN6ahQAEQWgbEUI2Z8t-29">
          <mxGeometry relative="1" as="geometry">
            <mxPoint x="505" y="445.37" as="sourcePoint" />
            <mxPoint x="530" y="445.37" as="targetPoint" />
          </mxGeometry>
        </mxCell>
        <mxCell id="OkN6ahQAEQWgbEUI2Z8t-40" value="" style="endArrow=none;html=1;rounded=0;" edge="1" parent="1" source="OkN6ahQAEQWgbEUI2Z8t-29" target="OkN6ahQAEQWgbEUI2Z8t-33">
          <mxGeometry relative="1" as="geometry">
            <mxPoint x="515" y="455.37" as="sourcePoint" />
            <mxPoint x="540" y="455.37" as="targetPoint" />
          </mxGeometry>
        </mxCell>
        <mxCell id="OkN6ahQAEQWgbEUI2Z8t-41" value="" style="endArrow=none;html=1;rounded=0;" edge="1" parent="1" source="OkN6ahQAEQWgbEUI2Z8t-28" target="OkN6ahQAEQWgbEUI2Z8t-35">
          <mxGeometry relative="1" as="geometry">
            <mxPoint x="525" y="410" as="sourcePoint" />
            <mxPoint x="550" y="410" as="targetPoint" />
          </mxGeometry>
        </mxCell>
        <mxCell id="OkN6ahQAEQWgbEUI2Z8t-42" value="" style="endArrow=none;html=1;rounded=0;" edge="1" parent="1" source="OkN6ahQAEQWgbEUI2Z8t-6" target="OkN6ahQAEQWgbEUI2Z8t-34">
          <mxGeometry relative="1" as="geometry">
            <mxPoint x="535" y="450" as="sourcePoint" />
            <mxPoint x="560" y="450" as="targetPoint" />
          </mxGeometry>
        </mxCell>
        <mxCell id="OkN6ahQAEQWgbEUI2Z8t-43" value="" style="endArrow=none;html=1;rounded=0;" edge="1" parent="1" source="OkN6ahQAEQWgbEUI2Z8t-30" target="OkN6ahQAEQWgbEUI2Z8t-27">
          <mxGeometry relative="1" as="geometry">
            <mxPoint x="445" y="430" as="sourcePoint" />
            <mxPoint x="470" y="430" as="targetPoint" />
          </mxGeometry>
        </mxCell>
        <mxCell id="OkN6ahQAEQWgbEUI2Z8t-44" value="" style="endArrow=none;html=1;rounded=0;" edge="1" parent="1" source="OkN6ahQAEQWgbEUI2Z8t-32" target="OkN6ahQAEQWgbEUI2Z8t-27">
          <mxGeometry relative="1" as="geometry">
            <mxPoint x="455" y="440" as="sourcePoint" />
            <mxPoint x="480" y="440" as="targetPoint" />
          </mxGeometry>
        </mxCell>
        <mxCell id="OkN6ahQAEQWgbEUI2Z8t-45" value="" style="endArrow=none;html=1;rounded=0;" edge="1" parent="1" source="OkN6ahQAEQWgbEUI2Z8t-37" target="OkN6ahQAEQWgbEUI2Z8t-27">
          <mxGeometry relative="1" as="geometry">
            <mxPoint x="465" y="450" as="sourcePoint" />
            <mxPoint x="490" y="450" as="targetPoint" />
          </mxGeometry>
        </mxCell>
        <mxCell id="OkN6ahQAEQWgbEUI2Z8t-46" value="&lt;u&gt;LehrerID&lt;/u&gt;" style="ellipse;whiteSpace=wrap;html=1;" vertex="1" parent="1">
          <mxGeometry x="360" y="395.37" width="120" height="80" as="geometry" />
        </mxCell>
        <mxCell id="OkN6ahQAEQWgbEUI2Z8t-47" value="" style="endArrow=none;html=1;rounded=0;" edge="1" parent="1" source="OkN6ahQAEQWgbEUI2Z8t-46" target="OkN6ahQAEQWgbEUI2Z8t-29">
          <mxGeometry relative="1" as="geometry">
            <mxPoint x="590" y="515.37" as="sourcePoint" />
            <mxPoint x="590" y="475.37" as="targetPoint" />
          </mxGeometry>
        </mxCell>
        <mxCell id="OkN6ahQAEQWgbEUI2Z8t-49" value="&lt;u&gt;SchÃ¼lerID&lt;/u&gt;" style="ellipse;whiteSpace=wrap;html=1;" vertex="1" parent="1">
          <mxGeometry x="110" y="50" width="120" height="80" as="geometry" />
        </mxCell>
        <mxCell id="OkN6ahQAEQWgbEUI2Z8t-50" value="" style="endArrow=none;html=1;rounded=0;" edge="1" parent="1" source="OkN6ahQAEQWgbEUI2Z8t-27" target="OkN6ahQAEQWgbEUI2Z8t-49">
          <mxGeometry relative="1" as="geometry">
            <mxPoint x="83" y="252" as="sourcePoint" />
            <mxPoint x="133" y="220" as="targetPoint" />
          </mxGeometry>
        </mxCell>
        <mxCell id="OkN6ahQAEQWgbEUI2Z8t-51" value="&lt;u&gt;KlassenID&lt;/u&gt;" style="ellipse;whiteSpace=wrap;html=1;" vertex="1" parent="1">
          <mxGeometry x="520" y="40" width="120" height="80" as="geometry" />
        </mxCell>
        <mxCell id="OkN6ahQAEQWgbEUI2Z8t-52" value="" style="endArrow=none;html=1;rounded=0;" edge="1" parent="1" source="OkN6ahQAEQWgbEUI2Z8t-28" target="OkN6ahQAEQWgbEUI2Z8t-51">
          <mxGeometry relative="1" as="geometry">
            <mxPoint x="650" y="190" as="sourcePoint" />
            <mxPoint x="680" y="190" as="targetPoint" />
          </mxGeometry>
        </mxCell>
      </root>
    </mxGraphModel>
  </diagram>
</mxfile>
